<svg xmlns="http://www.w3.org/2000/svg" viewBox="0 0 64 64">
  <defs>
    <linearGradient id="bg" x1="0" y1="0" x2="1" y2="1">
      <stop offset="0" stop-color="#12141f"/>
      <stop offset="1" stop-color="#06070c"/>
    </linearGradient>
    <linearGradient id="fg" x1="0" y1="0" x2="0" y2="1">
      <stop offset="0" stop-color="#f0c040"/>
      <stop offset="1" stop-color="#ff8a2a"/>
    </linearGradient>
  </defs>
  <rect width="64" height="64" rx="12" fill="url(#bg)"/>
  <rect x="3" y="3" width="58" height="58" rx="10" fill="none" stroke="#00e5ff" stroke-opacity="0.35" stroke-width="1.5"/>
  <!-- Stylized knight silhouette -->
  <path fill="url(#fg)" d="M20 50 L44 50 L46 46 L44 42 C44 38 42 35 38 32 C40 28 41 24 40 20 C39 15 36 12 32 11 C30 10 29 9 28 7 L26 10 C22 12 20 16 21 22 L18 24 L17 28 L21 28 L22 30 L19 34 C17 37 16 41 17 44 L20 46 Z"/>
  <circle cx="30" cy="20" r="1.4" fill="#06070c"/>
</svg>
